<svg width="20" height="20" viewBox="0 0 20 20" fill="none" xmlns="http://www.w3.org/2000/svg">
<path d="M12.0868 14.1009C12.0868 14.1009 13.7064 13.1737 14.1304 12.9509C14.5532 12.7273 14.9912 12.6709 15.2572 12.8333C15.66 13.0797 19.0424 15.3297 19.3272 15.5289C19.612 15.7285 19.7492 16.2985 19.3576 16.8569C18.9676 17.4153 17.1684 19.6233 16.406 19.5997C15.6424 19.5749 12.4676 19.5053 6.48078 13.5169C0.495181 7.53045 0.424381 4.35485 0.399981 3.59125C0.375581 2.82805 2.58358 1.02845 3.14198 0.638051C3.70118 0.248051 4.27198 0.394851 4.47038 0.669251C4.69598 0.981651 6.91998 4.35325 7.16478 4.73965C7.33238 5.00365 7.27078 5.44405 7.04718 5.86725C6.82478 6.29125 5.89758 7.91085 5.89758 7.91085C5.89758 7.91085 6.55118 9.02565 8.76158 11.2357C10.9724 13.4461 12.0868 14.1009 12.0868 14.1009Z" stroke="white" stroke-width="2" stroke-miterlimit="10"/>
</svg>
